<svg width="1113" height="216" viewBox="0 0 1113 216" fill="none" xmlns="http://www.w3.org/2000/svg">
<rect y="149.215" width="71.5026" height="47.5565" rx="10" fill="#377DFF"/>
<rect y="51" width="71.5556" height="83.7408" rx="10" fill="#377DFF"/>
<rect x="82.8" y="51" width="71.5556" height="47.5565" rx="10" fill="#377DFF"/>
<rect x="82.8" y="113.03" width="71.5556" height="83.7408" rx="10" fill="#377DFF"/>
<ellipse cx="78.2333" cy="124.459" rx="76.5" ry="72" fill="#4285F4" fill-opacity="0.1"/>
<path d="M232.6 187.8C232.6 191.267 231.467 194.2 229.2 196.6C226.933 198.867 224.067 200 220.6 200C217.133 200 214.267 198.867 212 196.6C209.733 194.2 208.6 191.267 208.6 187.8V105.2C208.6 101.733 209.733 98.8667 212 96.6C214.267 94.2 217.133 93 220.6 93C224.067 93 226.933 94.2 229.2 96.6C231.467 98.8667 232.6 101.733 232.6 105.2V187.8ZM220.4 80C215.867 80 212.667 79.2667 210.8 77.8C208.933 76.3333 208 73.7333 208 70V66.2C208 62.3333 209 59.7333 211 58.4C213.133 56.9333 216.333 56.2 220.6 56.2C225.267 56.2 228.533 56.9333 230.4 58.4C232.267 59.8667 233.2 62.4667 233.2 66.2V70C233.2 73.8667 232.2 76.5333 230.2 78C228.2 79.3333 224.933 80 220.4 80ZM304.266 202C294.932 202 286.532 200.867 279.066 198.6C271.599 196.2 264.466 192.067 257.666 186.2C255.932 184.733 254.599 183.067 253.666 181.2C252.732 179.333 252.266 177.467 252.266 175.6C252.266 172.533 253.332 169.867 255.466 167.6C257.732 165.2 260.532 164 263.866 164C266.399 164 268.666 164.8 270.666 166.4C275.732 170.533 280.732 173.667 285.666 175.8C290.732 177.933 296.932 179 304.266 179C309.199 179 313.732 178.267 317.866 176.8C321.999 175.2 325.332 173.133 327.866 170.6C330.399 167.933 331.666 164.933 331.666 161.6C331.666 157.6 330.466 154.2 328.066 151.4C325.666 148.6 321.999 146.267 317.066 144.4C312.132 142.4 305.866 140.867 298.266 139.8C291.066 138.733 284.732 137.133 279.266 135C273.799 132.733 269.199 129.933 265.466 126.6C261.866 123.133 259.132 119.133 257.266 114.6C255.399 109.933 254.466 104.733 254.466 99C254.466 90.3333 256.666 82.9333 261.066 76.8C265.599 70.6667 271.666 66 279.266 62.8C286.866 59.6 295.266 58 304.466 58C313.132 58 321.132 59.3333 328.466 62C335.932 64.5333 341.999 67.8 346.666 71.8C350.532 74.8667 352.466 78.4 352.466 82.4C352.466 85.3333 351.332 88 349.066 90.4C346.799 92.8 344.132 94 341.066 94C339.066 94 337.266 93.4 335.666 92.2C333.532 90.3333 330.666 88.6 327.066 87C323.466 85.2667 319.666 83.8667 315.666 82.8C311.666 81.6 307.932 81 304.466 81C298.732 81 293.866 81.7333 289.866 83.2C285.999 84.6667 283.066 86.6667 281.066 89.2C279.066 91.7333 278.066 94.6667 278.066 98C278.066 102 279.199 105.333 281.466 108C283.866 110.533 287.266 112.6 291.666 114.2C296.066 115.667 301.332 117 307.466 118.2C315.466 119.667 322.466 121.4 328.466 123.4C334.599 125.4 339.666 128 343.666 131.2C347.666 134.267 350.666 138.2 352.666 143C354.666 147.667 355.666 153.4 355.666 160.2C355.666 168.867 353.266 176.333 348.466 182.6C343.666 188.867 337.332 193.667 329.466 197C321.732 200.333 313.332 202 304.266 202ZM430.002 91.4L386.802 193C385.868 195.533 384.402 197.533 382.402 199C380.535 200.333 378.468 201 376.202 201C372.602 201 369.935 200 368.202 198C366.468 196 365.602 193.533 365.602 190.6C365.602 189.4 365.802 188.133 366.202 186.8L416.002 67.2C417.068 64.5333 418.668 62.4667 420.802 61C423.068 59.5333 425.468 58.9333 428.002 59.2C430.402 59.2 432.602 59.9333 434.602 61.4C436.735 62.7333 438.268 64.6667 439.202 67.2L488.402 184.4C489.068 186.133 489.402 187.733 489.402 189.2C489.402 192.8 488.202 195.667 485.802 197.8C483.535 199.933 481.002 201 478.202 201C475.802 201 473.602 200.267 471.602 198.8C469.735 197.333 468.268 195.333 467.202 192.8L424.202 92.6L430.002 91.4ZM393.002 168.6L404.002 145.6H458.002L461.802 168.6H393.002ZM571.359 202C561.226 202 551.759 200.133 542.959 196.4C534.159 192.667 526.426 187.533 519.759 181C513.093 174.333 507.826 166.667 503.959 158C500.226 149.333 498.359 140 498.359 130C498.359 120 500.226 110.667 503.959 102C507.826 93.3333 513.093 85.7333 519.759 79.2C526.426 72.5333 534.159 67.3333 542.959 63.6C551.759 59.8667 561.226 58 571.359 58C577.626 58 583.693 58.6667 589.559 60C595.426 61.3333 600.826 63.3333 605.759 66C607.759 67.0667 609.226 68.5333 610.159 70.4C611.226 72.1333 611.759 73.9333 611.759 75.8C611.759 79 610.693 81.8667 608.559 84.4C606.426 86.9333 603.693 88.2 600.359 88.2C599.293 88.2 598.159 88.0667 596.959 87.8C595.893 87.5333 594.826 87.1333 593.759 86.6C590.426 85.1333 586.893 84 583.159 83.2C579.426 82.4 575.493 82 571.359 82C562.693 82 554.759 84.2 547.559 88.6C540.493 92.8667 534.826 98.6667 530.559 106C526.426 113.2 524.359 121.2 524.359 130C524.359 138.667 526.426 146.667 530.559 154C534.826 161.333 540.493 167.2 547.559 171.6C554.759 175.867 562.693 178 571.359 178C575.359 178 579.759 177.6 584.559 176.8C589.359 176 593.293 174.933 596.359 173.6L594.559 179.6V145.4L597.959 148.4H575.759C572.293 148.4 569.359 147.267 566.959 145C564.693 142.733 563.559 139.867 563.559 136.4C563.559 132.933 564.693 130.067 566.959 127.8C569.359 125.533 572.293 124.4 575.759 124.4H608.559C612.026 124.4 614.893 125.6 617.159 128C619.426 130.267 620.559 133.133 620.559 136.6V179C620.559 181.667 619.893 183.867 618.559 185.6C617.359 187.333 615.959 188.733 614.359 189.8C608.226 193.533 601.493 196.533 594.159 198.8C586.959 200.933 579.359 202 571.359 202ZM669.617 187.8C669.617 191.267 668.351 194.2 665.817 196.6C663.284 198.867 660.351 200 657.017 200C653.284 200 650.284 198.867 648.017 196.6C645.751 194.2 644.617 191.267 644.617 187.8V72.2C644.617 68.7333 645.817 65.8667 648.217 63.6C650.617 61.2 653.684 60 657.417 60C660.617 60 663.417 61.2 665.817 63.6C668.351 65.8667 669.617 68.7333 669.617 72.2V187.8ZM774.602 97C783.535 97 791.468 99.2667 798.402 103.8C805.335 108.2 810.802 114.333 814.802 122.2C818.935 129.933 821.002 138.867 821.002 149C821.002 159 818.935 168 814.802 176C810.802 184 805.268 190.333 798.202 195C791.268 199.667 783.402 202 774.602 202C770.202 202 765.935 201.333 761.802 200C757.802 198.667 754.068 196.8 750.602 194.4C747.135 191.867 743.935 188.867 741.002 185.4C738.202 181.8 735.735 177.8 733.602 173.4L736.202 170.6V196C736.202 197.067 735.802 198 735.002 198.8C734.335 199.6 733.402 200 732.202 200C731.135 200 730.202 199.6 729.402 198.8C728.602 198 728.202 197.067 728.202 196V56.2C728.202 55.1333 728.535 54.2 729.202 53.4C730.002 52.6 731.002 52.2 732.202 52.2C733.402 52.2 734.335 52.6 735.002 53.4C735.802 54.2 736.202 55.1333 736.202 56.2V128.6L733.602 127.2C735.468 122.267 737.802 117.933 740.602 114.2C743.402 110.467 746.602 107.333 750.202 104.8C753.802 102.267 757.668 100.333 761.802 99C765.935 97.6667 770.202 97 774.602 97ZM774.202 104.6C766.602 104.6 759.868 106.533 754.002 110.4C748.268 114.133 743.735 119.333 740.402 126C737.068 132.667 735.402 140.333 735.402 149C735.402 157.667 737.068 165.467 740.402 172.4C743.735 179.2 748.268 184.6 754.002 188.6C759.868 192.467 766.602 194.4 774.202 194.4C781.668 194.4 788.268 192.4 794.002 188.4C799.868 184.4 804.468 179 807.802 172.2C811.268 165.267 813.002 157.533 813.002 149C813.002 140.333 811.268 132.667 807.802 126C804.468 119.333 799.868 114.133 794.002 110.4C788.268 106.533 781.668 104.6 774.202 104.6ZM855.928 196C855.928 197.067 855.528 198 854.728 198.8C853.928 199.6 852.995 200 851.928 200C850.728 200 849.728 199.6 848.928 198.8C848.261 198 847.928 197.067 847.928 196V101C847.928 99.9333 848.328 99 849.128 98.2C849.928 97.4 850.861 97 851.928 97C853.128 97 854.061 97.4 854.728 98.2C855.528 99 855.928 99.9333 855.928 101V196ZM851.928 83.4C849.795 83.4 848.061 82.8 846.728 81.6C845.528 80.4 844.928 78.8667 844.928 77V75.4C844.928 73.5333 845.595 72 846.928 70.8C848.261 69.6 849.995 69 852.128 69C853.995 69 855.528 69.6 856.728 70.8C858.061 72 858.728 73.5333 858.728 75.4V77C858.728 78.8667 858.061 80.4 856.728 81.6C855.528 82.8 853.928 83.4 851.928 83.4ZM898.139 196C898.139 197.067 897.739 198 896.939 198.8C896.139 199.6 895.206 200 894.139 200C892.939 200 891.939 199.6 891.139 198.8C890.472 198 890.139 197.067 890.139 196V56C890.139 54.9333 890.539 54 891.339 53.2C892.139 52.4 893.072 52 894.139 52C895.339 52 896.272 52.4 896.939 53.2C897.739 54 898.139 54.9333 898.139 56V196ZM941.303 196C941.303 197.067 940.903 198 940.103 198.8C939.303 199.6 938.37 200 937.303 200C936.103 200 935.103 199.6 934.303 198.8C933.636 198 933.303 197.067 933.303 196V56C933.303 54.9333 933.703 54 934.503 53.2C935.303 52.4 936.236 52 937.303 52C938.503 52 939.436 52.4 940.103 53.2C940.903 54 941.303 54.9333 941.303 56V196ZM969.867 184C968.934 182.4 968.467 181.133 968.467 180.2C968.601 179.133 969.134 178.267 970.067 177.6C970.734 176.933 971.601 176.667 972.667 176.8C973.867 176.8 974.867 177.267 975.667 178.2C979.134 183.133 983.534 187.133 988.867 190.2C994.334 193.267 1000.73 194.8 1008.07 194.8C1012.47 194.8 1016.67 194.067 1020.67 192.6C1024.8 191.133 1028.13 188.933 1030.67 186C1033.33 183.067 1034.67 179.467 1034.67 175.2C1034.67 170.667 1033.4 167.067 1030.87 164.4C1028.33 161.6 1025.07 159.4 1021.07 157.8C1017.07 156.2 1012.87 154.867 1008.47 153.8C1003.8 152.6 999.334 151.267 995.067 149.8C990.934 148.2 987.267 146.267 984.067 144C980.867 141.6 978.334 138.8 976.467 135.6C974.601 132.4 973.667 128.6 973.667 124.2C973.667 119 975.067 114.333 977.867 110.2C980.667 106.067 984.601 102.867 989.667 100.6C994.734 98.2 1000.6 97 1007.27 97C1010.47 97 1013.87 97.4 1017.47 98.2C1021.07 99 1024.67 100.4 1028.27 102.4C1031.87 104.267 1035.2 106.933 1038.27 110.4C1039.33 111.2 1039.8 112.2 1039.67 113.4C1039.67 114.467 1039.2 115.467 1038.27 116.4C1037.47 116.933 1036.6 117.2 1035.67 117.2C1034.73 117.2 1033.93 116.8 1033.27 116C1029.8 112.133 1025.73 109.267 1021.07 107.4C1016.53 105.533 1011.67 104.6 1006.47 104.6C1002.07 104.6 997.934 105.333 994.067 106.8C990.334 108.267 987.267 110.467 984.867 113.4C982.467 116.2 981.267 119.8 981.267 124.2C981.534 128.333 982.934 131.733 985.467 134.4C988.134 137.067 991.601 139.267 995.867 141C1000.27 142.733 1005.2 144.333 1010.67 145.8C1015.07 146.867 1019.13 148.133 1022.87 149.6C1026.73 150.933 1030.07 152.667 1032.87 154.8C1035.8 156.933 1038.07 159.6 1039.67 162.8C1041.4 166 1042.27 170 1042.27 174.8C1042.27 180.4 1040.73 185.267 1037.67 189.4C1034.73 193.4 1030.6 196.533 1025.27 198.8C1020.07 200.933 1014.07 202 1007.27 202C1000.33 202 993.667 200.6 987.267 197.8C980.867 195 975.067 190.4 969.867 184Z" fill="#47545F"/>
</svg>
