<svg width="1116" height="237" viewBox="0 0 1116 237" fill="none" xmlns="http://www.w3.org/2000/svg">
<rect y="152.215" width="71.5026" height="47.5565" rx="10" fill="white" fill-opacity="0.35"/>
<rect y="54" width="71.5556" height="83.7408" rx="10" fill="white" fill-opacity="0.35"/>
<rect x="82.8" y="54" width="71.5556" height="47.5565" rx="10" fill="white" fill-opacity="0.35"/>
<rect x="82.8" y="116.03" width="71.5556" height="83.7408" rx="10" fill="white" fill-opacity="0.35"/>
<path d="M232.6 187.8C232.6 191.267 231.467 194.2 229.2 196.6C226.933 198.867 224.067 200 220.6 200C217.133 200 214.267 198.867 212 196.6C209.733 194.2 208.6 191.267 208.6 187.8V105.2C208.6 101.733 209.733 98.8667 212 96.6C214.267 94.2 217.133 93 220.6 93C224.067 93 226.933 94.2 229.2 96.6C231.467 98.8667 232.6 101.733 232.6 105.2V187.8ZM220.4 80C215.867 80 212.667 79.2667 210.8 77.8C208.933 76.3333 208 73.7333 208 70V66.2C208 62.3333 209 59.7333 211 58.4C213.133 56.9333 216.333 56.2 220.6 56.2C225.267 56.2 228.533 56.9333 230.4 58.4C232.267 59.8667 233.2 62.4667 233.2 66.2V70C233.2 73.8667 232.2 76.5333 230.2 78C228.2 79.3333 224.933 80 220.4 80ZM304.266 202C294.932 202 286.532 200.867 279.066 198.6C271.599 196.2 264.466 192.067 257.666 186.2C255.932 184.733 254.599 183.067 253.666 181.2C252.732 179.333 252.266 177.467 252.266 175.6C252.266 172.533 253.332 169.867 255.466 167.6C257.732 165.2 260.532 164 263.866 164C266.399 164 268.666 164.8 270.666 166.4C275.732 170.533 280.732 173.667 285.666 175.8C290.732 177.933 296.932 179 304.266 179C309.199 179 313.732 178.267 317.866 176.8C321.999 175.2 325.332 173.133 327.866 170.6C330.399 167.933 331.666 164.933 331.666 161.6C331.666 157.6 330.466 154.2 328.066 151.4C325.666 148.6 321.999 146.267 317.066 144.4C312.132 142.4 305.866 140.867 298.266 139.8C291.066 138.733 284.732 137.133 279.266 135C273.799 132.733 269.199 129.933 265.466 126.6C261.866 123.133 259.132 119.133 257.266 114.6C255.399 109.933 254.466 104.733 254.466 99C254.466 90.3333 256.666 82.9333 261.066 76.8C265.599 70.6667 271.666 66 279.266 62.8C286.866 59.6 295.266 58 304.466 58C313.132 58 321.132 59.3333 328.466 62C335.932 64.5333 341.999 67.8 346.666 71.8C350.532 74.8667 352.466 78.4 352.466 82.4C352.466 85.3333 351.332 88 349.066 90.4C346.799 92.8 344.132 94 341.066 94C339.066 94 337.266 93.4 335.666 92.2C333.532 90.3333 330.666 88.6 327.066 87C323.466 85.2667 319.666 83.8667 315.666 82.8C311.666 81.6 307.932 81 304.466 81C298.732 81 293.866 81.7333 289.866 83.2C285.999 84.6667 283.066 86.6667 281.066 89.2C279.066 91.7333 278.066 94.6667 278.066 98C278.066 102 279.199 105.333 281.466 108C283.866 110.533 287.266 112.6 291.666 114.2C296.066 115.667 301.332 117 307.466 118.2C315.466 119.667 322.466 121.4 328.466 123.4C334.599 125.4 339.666 128 343.666 131.2C347.666 134.267 350.666 138.2 352.666 143C354.666 147.667 355.666 153.4 355.666 160.2C355.666 168.867 353.266 176.333 348.466 182.6C343.666 188.867 337.332 193.667 329.466 197C321.732 200.333 313.332 202 304.266 202ZM430.002 91.4L386.802 193C385.868 195.533 384.402 197.533 382.402 199C380.535 200.333 378.468 201 376.202 201C372.602 201 369.935 200 368.202 198C366.468 196 365.602 193.533 365.602 190.6C365.602 189.4 365.802 188.133 366.202 186.8L416.002 67.2C417.068 64.5333 418.668 62.4667 420.802 61C423.068 59.5333 425.468 58.9333 428.002 59.2C430.402 59.2 432.602 59.9333 434.602 61.4C436.735 62.7333 438.268 64.6667 439.202 67.2L488.402 184.4C489.068 186.133 489.402 187.733 489.402 189.2C489.402 192.8 488.202 195.667 485.802 197.8C483.535 199.933 481.002 201 478.202 201C475.802 201 473.602 200.267 471.602 198.8C469.735 197.333 468.268 195.333 467.202 192.8L424.202 92.6L430.002 91.4ZM393.002 168.6L404.002 145.6H458.002L461.802 168.6H393.002ZM571.359 202C561.226 202 551.759 200.133 542.959 196.4C534.159 192.667 526.426 187.533 519.759 181C513.093 174.333 507.826 166.667 503.959 158C500.226 149.333 498.359 140 498.359 130C498.359 120 500.226 110.667 503.959 102C507.826 93.3333 513.093 85.7333 519.759 79.2C526.426 72.5333 534.159 67.3333 542.959 63.6C551.759 59.8667 561.226 58 571.359 58C577.626 58 583.693 58.6667 589.559 60C595.426 61.3333 600.826 63.3333 605.759 66C607.759 67.0667 609.226 68.5333 610.159 70.4C611.226 72.1333 611.759 73.9333 611.759 75.8C611.759 79 610.693 81.8667 608.559 84.4C606.426 86.9333 603.693 88.2 600.359 88.2C599.293 88.2 598.159 88.0667 596.959 87.8C595.893 87.5333 594.826 87.1333 593.759 86.6C590.426 85.1333 586.893 84 583.159 83.2C579.426 82.4 575.493 82 571.359 82C562.693 82 554.759 84.2 547.559 88.6C540.493 92.8667 534.826 98.6667 530.559 106C526.426 113.2 524.359 121.2 524.359 130C524.359 138.667 526.426 146.667 530.559 154C534.826 161.333 540.493 167.2 547.559 171.6C554.759 175.867 562.693 178 571.359 178C575.359 178 579.759 177.6 584.559 176.8C589.359 176 593.293 174.933 596.359 173.6L594.559 179.6V145.4L597.959 148.4H575.759C572.293 148.4 569.359 147.267 566.959 145C564.693 142.733 563.559 139.867 563.559 136.4C563.559 132.933 564.693 130.067 566.959 127.8C569.359 125.533 572.293 124.4 575.759 124.4H608.559C612.026 124.4 614.893 125.6 617.159 128C619.426 130.267 620.559 133.133 620.559 136.6V179C620.559 181.667 619.893 183.867 618.559 185.6C617.359 187.333 615.959 188.733 614.359 189.8C608.226 193.533 601.493 196.533 594.159 198.8C586.959 200.933 579.359 202 571.359 202ZM669.617 187.8C669.617 191.267 668.351 194.2 665.817 196.6C663.284 198.867 660.351 200 657.017 200C653.284 200 650.284 198.867 648.017 196.6C645.751 194.2 644.617 191.267 644.617 187.8V72.2C644.617 68.7333 645.817 65.8667 648.217 63.6C650.617 61.2 653.684 60 657.417 60C660.617 60 663.417 61.2 665.817 63.6C668.351 65.8667 669.617 68.7333 669.617 72.2V187.8Z" fill="white" fill-opacity="0.8"/>
<path d="M773 97C781.933 97 789.867 99.2667 796.8 103.8C803.733 108.2 809.2 114.333 813.2 122.2C817.333 129.933 819.4 138.867 819.4 149C819.4 159 817.333 168 813.2 176C809.2 184 803.667 190.333 796.6 195C789.667 199.667 781.8 202 773 202C768.6 202 764.333 201.333 760.2 200C756.2 198.667 752.467 196.8 749 194.4C745.533 191.867 742.333 188.867 739.4 185.4C736.6 181.8 734.133 177.8 732 173.4L734.6 170.6V196C734.6 197.067 734.2 198 733.4 198.8C732.733 199.6 731.8 200 730.6 200C729.533 200 728.6 199.6 727.8 198.8C727 198 726.6 197.067 726.6 196V56.2C726.6 55.1333 726.933 54.2 727.6 53.4C728.4 52.6 729.4 52.2 730.6 52.2C731.8 52.2 732.733 52.6 733.4 53.4C734.2 54.2 734.6 55.1333 734.6 56.2V128.6L732 127.2C733.867 122.267 736.2 117.933 739 114.2C741.8 110.467 745 107.333 748.6 104.8C752.2 102.267 756.067 100.333 760.2 99C764.333 97.6667 768.6 97 773 97ZM772.6 104.6C765 104.6 758.267 106.533 752.4 110.4C746.667 114.133 742.133 119.333 738.8 126C735.467 132.667 733.8 140.333 733.8 149C733.8 157.667 735.467 165.467 738.8 172.4C742.133 179.2 746.667 184.6 752.4 188.6C758.267 192.467 765 194.4 772.6 194.4C780.067 194.4 786.667 192.4 792.4 188.4C798.267 184.4 802.867 179 806.2 172.2C809.667 165.267 811.4 157.533 811.4 149C811.4 140.333 809.667 132.667 806.2 126C802.867 119.333 798.267 114.133 792.4 110.4C786.667 106.533 780.067 104.6 772.6 104.6ZM854.327 196C854.327 197.067 853.927 198 853.127 198.8C852.327 199.6 851.393 200 850.327 200C849.127 200 848.127 199.6 847.327 198.8C846.66 198 846.327 197.067 846.327 196V101C846.327 99.9333 846.727 99 847.527 98.2C848.327 97.4 849.26 97 850.327 97C851.527 97 852.46 97.4 853.127 98.2C853.927 99 854.327 99.9333 854.327 101V196ZM850.327 83.4C848.193 83.4 846.46 82.8 845.127 81.6C843.927 80.4 843.327 78.8667 843.327 77V75.4C843.327 73.5333 843.993 72 845.327 70.8C846.66 69.6 848.393 69 850.527 69C852.393 69 853.927 69.6 855.127 70.8C856.46 72 857.127 73.5333 857.127 75.4V77C857.127 78.8667 856.46 80.4 855.127 81.6C853.927 82.8 852.327 83.4 850.327 83.4ZM896.538 196C896.538 197.067 896.138 198 895.338 198.8C894.538 199.6 893.604 200 892.538 200C891.338 200 890.338 199.6 889.538 198.8C888.871 198 888.538 197.067 888.538 196V56C888.538 54.9333 888.938 54 889.738 53.2C890.538 52.4 891.471 52 892.538 52C893.738 52 894.671 52.4 895.338 53.2C896.138 54 896.538 54.9333 896.538 56V196ZM939.702 196C939.702 197.067 939.302 198 938.502 198.8C937.702 199.6 936.768 200 935.702 200C934.502 200 933.502 199.6 932.702 198.8C932.035 198 931.702 197.067 931.702 196V56C931.702 54.9333 932.102 54 932.902 53.2C933.702 52.4 934.635 52 935.702 52C936.902 52 937.835 52.4 938.502 53.2C939.302 54 939.702 54.9333 939.702 56V196ZM968.266 184C967.332 182.4 966.866 181.133 966.866 180.2C966.999 179.133 967.532 178.267 968.466 177.6C969.132 176.933 969.999 176.667 971.066 176.8C972.266 176.8 973.266 177.267 974.066 178.2C977.532 183.133 981.932 187.133 987.266 190.2C992.732 193.267 999.132 194.8 1006.47 194.8C1010.87 194.8 1015.07 194.067 1019.07 192.6C1023.2 191.133 1026.53 188.933 1029.07 186C1031.73 183.067 1033.07 179.467 1033.07 175.2C1033.07 170.667 1031.8 167.067 1029.27 164.4C1026.73 161.6 1023.47 159.4 1019.47 157.8C1015.47 156.2 1011.27 154.867 1006.87 153.8C1002.2 152.6 997.732 151.267 993.466 149.8C989.332 148.2 985.666 146.267 982.466 144C979.266 141.6 976.732 138.8 974.866 135.6C972.999 132.4 972.066 128.6 972.066 124.2C972.066 119 973.466 114.333 976.266 110.2C979.066 106.067 982.999 102.867 988.066 100.6C993.132 98.2 998.999 97 1005.67 97C1008.87 97 1012.27 97.4 1015.87 98.2C1019.47 99 1023.07 100.4 1026.67 102.4C1030.27 104.267 1033.6 106.933 1036.67 110.4C1037.73 111.2 1038.2 112.2 1038.07 113.4C1038.07 114.467 1037.6 115.467 1036.67 116.4C1035.87 116.933 1035 117.2 1034.07 117.2C1033.13 117.2 1032.33 116.8 1031.67 116C1028.2 112.133 1024.13 109.267 1019.47 107.4C1014.93 105.533 1010.07 104.6 1004.87 104.6C1000.47 104.6 996.332 105.333 992.466 106.8C988.732 108.267 985.666 110.467 983.266 113.4C980.866 116.2 979.666 119.8 979.666 124.2C979.932 128.333 981.332 131.733 983.866 134.4C986.532 137.067 989.999 139.267 994.266 141C998.666 142.733 1003.6 144.333 1009.07 145.8C1013.47 146.867 1017.53 148.133 1021.27 149.6C1025.13 150.933 1028.47 152.667 1031.27 154.8C1034.2 156.933 1036.47 159.6 1038.07 162.8C1039.8 166 1040.67 170 1040.67 174.8C1040.67 180.4 1039.13 185.267 1036.07 189.4C1033.13 193.4 1029 196.533 1023.67 198.8C1018.47 200.933 1012.47 202 1005.67 202C998.732 202 992.066 200.6 985.666 197.8C979.266 195 973.466 190.4 968.266 184Z" fill="white" fill-opacity="0.8"/>
</svg>
